<?xml version="1.0" standalone="no"?>
<!DOCTYPE svg PUBLIC "-//W3C//DTD SVG 20010904//EN"
 "http://www.w3.org/TR/2001/REC-SVG-20010904/DTD/svg10.dtd">
<svg version="1.0" xmlns="http://www.w3.org/2000/svg"
 width="526.000000pt" height="526.000000pt" viewBox="0 0 526.000000 526.000000"
 preserveAspectRatio="xMidYMid meet">

<g transform="translate(0.000000,526.000000) scale(0.100000,-0.100000)"
fill="#000000" stroke="none">
<path d="M2680 5229 c-641 -65 -1230 -395 -1624 -908 -83 -109 -156 -222 -204
-317 l-31 -61 -66 -6 c-128 -12 -155 -31 -428 -305 -266 -267 -276 -281 -298
-409 -34 -197 38 -580 159 -845 34 -75 65 -98 132 -98 32 0 48 7 77 33 51 47
50 90 -4 227 -23 58 -53 146 -68 195 -52 180 -71 407 -40 483 17 40 400 433
447 458 35 18 72 18 109 -1 19 -10 111 -124 255 -317 l226 -301 -166 -166
c-91 -91 -170 -179 -176 -195 -16 -44 -14 -127 4 -170 35 -85 229 -358 397
-561 107 -129 456 -478 584 -584 207 -171 476 -362 561 -397 43 -18 126 -20
170 -4 16 6 104 85 195 176 l166 166 301 -226 c193 -144 307 -236 317 -255 19
-37 19 -74 1 -109 -25 -47 -418 -430 -458 -447 -48 -19 -172 -20 -298 0 -397
60 -899 330 -1420 765 -300 251 -622 628 -851 997 -46 74 -95 143 -109 152
-14 9 -45 16 -73 16 -43 0 -52 -4 -83 -37 -46 -50 -46 -99 -3 -177 134 -237
420 -613 653 -858 304 -320 800 -689 1186 -883 465 -233 953 -307 1160 -174
19 12 141 129 271 261 259 262 274 283 286 409 l6 65 59 30 c241 122 549 377
728 604 433 548 600 1246 460 1926 -76 368 -256 745 -483 1011 -70 81 -111
104 -163 92 -65 -15 -112 -92 -94 -154 5 -16 35 -62 68 -102 257 -315 422
-714 462 -1117 78 -792 -321 -1584 -1002 -1985 -146 -85 -141 -84 -182 -49
l-34 31 41 18 c69 31 211 119 294 180 98 73 286 255 366 354 202 250 334 536
403 871 26 125 28 150 28 379 0 229 -2 254 -28 379 -87 424 -268 756 -572
1051 -120 116 -186 169 -314 252 -434 282 -1012 379 -1529 258 -288 -68 -571
-207 -796 -390 -98 -80 -107 -93 -113 -150 -4 -48 -3 -52 37 -91 39 -39 44
-41 89 -37 42 4 60 14 138 77 225 183 509 315 789 367 153 29 511 26 653 -4
705 -153 1222 -669 1374 -1372 19 -92 22 -134 22 -340 0 -206 -3 -248 -22
-340 -121 -562 -494 -1029 -997 -1250 l-93 -40 -173 130 c-184 138 -215 154
-310 153 -95 -1 -131 -25 -294 -191 l-147 -151 -92 61 c-257 172 -454 335
-677 557 -222 223 -385 420 -557 677 l-61 92 151 147 c166 163 190 199 191
294 1 95 -15 126 -153 309 l-129 173 19 49 c42 106 131 262 225 394 47 65 48
120 4 170 -36 41 -81 53 -134 36 -27 -9 -50 -30 -92 -88 -61 -81 -147 -222
-177 -289 l-18 -41 -31 34 c-35 41 -36 36 49 182 242 410 642 736 1104 897
200 70 372 102 600 111 500 22 983 -139 1396 -466 50 -39 64 -45 105 -45 87 0
142 71 119 156 -9 32 -26 52 -88 101 -317 253 -699 418 -1117 483 -122 20
-436 27 -565 14z m570 -64 c242 -38 501 -122 710 -232 196 -103 433 -272 444
-318 14 -54 -34 -105 -86 -92 -13 4 -53 30 -88 58 -381 307 -903 477 -1400
455 -468 -20 -890 -177 -1255 -466 -215 -170 -437 -441 -551 -672 l-38 -77 40
-43 c21 -24 50 -58 64 -77 l25 -33 53 106 c56 113 172 293 217 339 33 32 63
34 99 6 44 -34 36 -70 -39 -174 -64 -89 -165 -274 -203 -370 l-20 -51 133
-177 c73 -98 139 -192 146 -209 17 -42 16 -124 -4 -170 -9 -22 -76 -96 -176
-193 -146 -143 -159 -159 -149 -179 6 -11 42 -68 81 -126 317 -475 747 -903
1226 -1223 63 -43 122 -77 131 -77 10 0 85 70 169 156 95 97 166 161 189 171
46 20 128 21 170 4 17 -7 111 -73 208 -146 l177 -132 61 24 c107 43 268 132
366 201 122 86 336 300 422 422 167 236 283 537 318 820 13 109 13 331 0 440
-60 492 -334 950 -741 1243 -187 134 -457 250 -695 298 -153 30 -435 38 -594
15 -331 -48 -618 -174 -888 -389 -92 -73 -120 -81 -159 -45 -24 23 -30 57 -13
88 5 10 45 46 87 81 286 230 627 374 995 419 127 16 443 8 563 -14 286 -52
569 -173 806 -342 101 -72 288 -251 371 -353 195 -241 326 -522 395 -846 26
-122 27 -146 27 -375 0 -229 -1 -253 -27 -373 -85 -398 -244 -701 -516 -981
-164 -168 -329 -289 -530 -389 l-103 -52 33 -25 c19 -14 53 -43 77 -64 l43
-40 77 38 c231 114 498 333 672 551 386 485 546 1117 434 1721 -63 343 -221
686 -439 953 -79 97 -86 129 -41 168 15 12 37 23 49 23 44 0 193 -188 314
-396 142 -244 242 -537 285 -839 19 -133 16 -483 -5 -620 -116 -737 -541
-1341 -1192 -1692 l-90 -48 -1 -70 c-1 -122 -14 -141 -282 -407 -138 -137
-254 -244 -277 -256 -162 -80 -510 -44 -849 90 -489 192 -1111 639 -1495 1073
-260 294 -581 747 -581 821 0 52 54 87 104 68 9 -3 32 -34 53 -68 168 -279
448 -640 663 -856 329 -331 818 -678 1191 -847 234 -106 432 -159 630 -170
201 -11 185 -19 451 246 188 187 229 233 239 268 14 48 7 95 -21 140 -11 19
-141 124 -322 259 -230 173 -309 227 -331 227 -23 0 -57 -28 -190 -160 -89
-89 -172 -166 -185 -173 -30 -15 -114 -15 -143 1 -46 24 -265 173 -362 247
-305 230 -620 540 -850 835 -98 126 -201 271 -262 369 -40 65 -47 84 -47 127
1 27 6 60 12 73 7 13 84 96 173 185 132 133 160 167 160 190 0 22 -54 101
-226 330 -124 165 -239 310 -256 322 -42 30 -118 38 -163 17 -19 -9 -134 -117
-255 -239 -258 -260 -250 -246 -240 -446 10 -180 44 -315 148 -588 l24 -62
-21 -28 c-23 -31 -69 -41 -102 -24 -23 12 -96 189 -135 326 -48 165 -61 259
-62 425 0 225 -6 215 298 517 270 268 284 278 407 278 l65 0 48 90 c297 551
794 956 1382 1124 128 37 286 68 410 80 126 13 440 5 565 -14z"/>
<path d="M1931 3454 c-68 -18 -108 -43 -159 -98 -49 -54 -63 -78 -77 -141 -15
-62 -5 -102 34 -139 24 -23 40 -29 75 -30 58 -1 94 25 127 93 38 79 91 101
143 60 79 -62 61 -100 -221 -481 -68 -92 -128 -182 -133 -199 -21 -71 23 -143
97 -160 52 -12 449 -11 494 1 19 6 46 21 58 34 31 33 39 102 17 144 -26 51
-60 62 -190 62 l-116 0 96 133 c152 212 202 331 184 443 -23 142 -114 243
-252 280 -66 17 -108 17 -177 -2z m212 -62 c116 -51 189 -186 166 -309 -15
-80 -60 -160 -197 -350 l-131 -183 164 0 c156 0 165 -1 185 -22 25 -27 26 -69
1 -99 -19 -24 -21 -24 -249 -27 -187 -2 -237 0 -266 12 -38 16 -61 55 -51 87
3 10 64 97 135 194 240 326 279 397 259 468 -18 67 -109 121 -171 102 -45 -14
-87 -55 -99 -96 -13 -43 -50 -79 -80 -79 -10 0 -30 11 -45 23 -34 29 -35 76
-3 139 71 143 238 204 382 140z"/>
<path d="M2734 3449 c-64 -18 -103 -74 -330 -474 -98 -174 -107 -195 -108
-243 0 -46 4 -56 32 -85 l32 -32 175 -3 175 -4 1 -66 c1 -126 39 -177 131
-177 45 0 53 4 84 37 33 37 34 40 34 123 0 82 1 85 25 91 14 3 38 22 55 40 41
47 42 108 3 154 -14 17 -36 36 -49 40 -22 9 -22 11 -26 242 -3 253 -5 264 -65
320 -48 46 -100 57 -169 37z m130 -70 c20 -17 40 -47 46 -67 5 -20 10 -142 10
-269 l0 -233 28 0 c40 0 72 -33 72 -74 0 -39 -25 -66 -72 -75 l-33 -7 -3 -99
c-2 -86 -6 -103 -24 -122 -21 -23 -51 -29 -83 -17 -31 12 -45 59 -45 154 l0
90 -185 0 c-184 0 -186 0 -210 25 -14 13 -25 34 -25 47 0 30 273 519 337 606
57 76 129 92 187 41z"/>
<path d="M2712 3108 c-79 -135 -162 -284 -162 -291 0 -4 50 -7 110 -7 l110 0
0 190 c0 105 -2 190 -5 190 -2 0 -26 -37 -53 -82z m5 -245 c-3 -2 -23 -3 -45
-1 l-41 3 42 73 42 74 3 -72 c2 -40 1 -74 -1 -77z"/>
<path d="M3494 3454 c-47 -11 -73 -62 -245 -494 -197 -494 -201 -513 -142
-572 27 -27 40 -32 82 -32 91 -2 85 -11 285 485 201 501 207 523 151 579 -30
29 -85 44 -131 34z m91 -69 c14 -13 25 -33 25 -44 0 -35 -350 -905 -372 -923
-11 -10 -31 -18 -45 -18 -30 0 -73 42 -73 71 0 13 79 222 176 466 122 307 182
448 197 458 31 22 65 18 92 -10z"/>
<path d="M3770 3443 c-65 -33 -86 -117 -45 -180 29 -43 71 -53 231 -53 113 0
145 -3 141 -12 -3 -7 -71 -162 -151 -344 -158 -358 -166 -388 -125 -445 43
-60 155 -61 197 -1 22 32 388 864 398 904 8 36 -11 90 -42 119 -26 24 -26 24
-297 27 -244 2 -276 1 -307 -15z m575 -58 c14 -13 25 -33 25 -44 0 -31 -387
-904 -407 -918 -46 -35 -113 1 -113 60 1 19 65 178 164 402 l163 370 -194 5
c-190 5 -195 6 -214 29 -26 32 -24 67 6 96 l24 25 261 0 261 0 24 -25z"/>
</g>
</svg>
